# xmcd
#
# Track frame offsets:
#	150
#	14855
#	31135
#	52896
#	67846
#	82968
#	98060
#	111381
#	126117
#	143182
#	159418
#	173708
#	187358
#	197142
#	209734
#	222737
#	234291
#	245979
#	257726
#	269993
#	280738
#	293067
#	306474
#	320106
#
# Disc length: 4445 seconds
# Revision: 2
# Processed by: cddbd v1.5.2PL0 Copyright (c) Steve Scherf et al.
# Submitted via: dBpowerAMP V12.0
#
DISCID=83115b18
DTITLE=john lee hooker - Eight Classic Albums - Disc 1 of 4
DYEAR=2014
DGENRE=Blues
TTITLE0=burning hell
TTITLE1=graveyard blues
TTITLE2=baby, please don't go
TTITLE3=jackson, tennessee
TTITLE4=you live your life and i'll live mine
TTITLE5=smokestack lightnin'
TTITLE6=how can you do it
TTITLE7=i Don't want no women if her hair ain't longer than mine
TTITLE8=i rolled and turned and cried the whole night long
TTITLE9=blues for my baby
TTITLE10=key to the highway
TTITLE11=natchez fire
TTITLE12=dimples
TTITLE13=hobo blues
TTITLE14=i'm so excited
TTITLE15=i love you honey
TTITLE16=boogie chillun
TTITLE17=little wheel
TTITLE18=i'm in the mood
TTITLE19=maudie
TTITLE20=crawlin' king snake
TTITLE21=every night
TTITLE22=time is marching
TTITLE23=baby lee
EXTD=
EXTT0=
EXTT1=
EXTT2=
EXTT3=
EXTT4=
EXTT5=
EXTT6=
EXTT7=
EXTT8=
EXTT9=
EXTT10=
EXTT11=
EXTT12=
EXTT13=
EXTT14=
EXTT15=
EXTT16=
EXTT17=
EXTT18=
EXTT19=
EXTT20=
EXTT21=
EXTT22=
EXTT23=
PLAYORDER=
